<?xml version="1.0" standalone="no"?>
<!DOCTYPE svg PUBLIC "-//W3C//DTD SVG 20010904//EN"
 "http://www.w3.org/TR/2001/REC-SVG-20010904/DTD/svg10.dtd">
<svg version="1.0" xmlns="http://www.w3.org/2000/svg"
 width="500.000000pt" height="250.000000pt" viewBox="0 0 500.000000 250.000000"
 preserveAspectRatio="xMidYMid meet">

<g transform="translate(0.000000,250.000000) scale(0.100000,-0.100000)"
fill="#000000" stroke="none">
<path d="M2381 2374 c-61 -43 -60 -147 2 -184 51 -32 103 -26 143 14 28 28 34
42 34 76 0 34 -6 48 -34 76 -28 28 -41 34 -78 34 -24 0 -54 -7 -67 -16z m109
-54 c11 -11 20 -29 20 -40 0 -26 -34 -60 -62 -60 -50 0 -76 63 -41 102 21 24
58 23 83 -2z"/>
<path d="M2034 2326 c-120 -53 -54 -237 70 -196 78 25 102 115 47 171 -16 16
-36 29 -44 29 -9 0 -21 2 -29 5 -7 2 -27 -2 -44 -9z m78 -63 c22 -20 23 -41 1
-65 -20 -22 -51 -23 -75 -1 -22 20 -23 41 -1 65 20 22 51 23 75 1z"/>
<path d="M1785 2177 c-38 -38 -44 -70 -21 -116 36 -69 146 -64 176 8 25 61
-14 126 -83 138 -32 5 -41 1 -72 -30z m103 -64 c4 -38 -25 -60 -57 -44 -47 25
-30 84 22 79 28 -3 32 -7 35 -35z"/>
<path d="M2725 2148 c-76 -44 -49 -159 37 -158 37 1 59 14 76 47 19 35 14 63
-17 94 -31 30 -63 36 -96 17z m69 -63 c2 -7 -2 -21 -9 -32 -11 -14 -18 -16
-31 -7 -25 15 -27 29 -9 47 17 17 40 13 49 -8z"/>
<path d="M2389 2087 c-12 -23 -47 -77 -78 -121 l-56 -78 -10 38 c-18 71 -20
70 -113 -25 -98 -100 -149 -131 -217 -131 -59 0 -79 11 -110 60 -14 22 -39 47
-56 55 -28 15 -33 15 -66 -2 -51 -25 -78 -65 -77 -113 1 -22 -2 -40 -7 -40
-13 0 -39 -56 -39 -82 0 -32 52 -120 89 -151 28 -23 29 -27 18 -56 -10 -27 -8
-33 12 -55 13 -13 36 -30 52 -36 38 -16 37 -23 -6 -43 -20 -9 -38 -24 -41 -32
-5 -11 -22 -15 -67 -15 l-61 0 28 -29 28 -29 -46 -139 c-25 -76 -46 -146 -46
-155 0 -9 12 -26 26 -37 25 -19 40 -21 186 -21 183 0 212 8 245 68 12 20 31
70 44 110 l23 72 128 0 c97 0 128 -3 128 -13 0 -7 -55 -62 -121 -122 l-122
-110 78 -3 79 -3 68 68 c81 80 64 90 169 -99 l70 -128 95 0 94 0 -51 82 c-29
46 -83 132 -121 191 -37 60 -66 112 -63 117 3 4 29 11 57 15 29 4 70 14 92 21
51 18 155 19 162 1 3 -8 -15 -71 -40 -140 l-45 -127 68 0 67 0 24 76 c13 41
27 77 30 79 4 2 19 -36 35 -85 16 -50 32 -90 35 -90 3 0 24 18 45 41 22 22 66
63 97 91 l57 49 -24 -72 c-29 -84 -27 -89 51 -89 l51 0 70 203 70 202 -61 3
-61 3 -110 -116 c-60 -63 -113 -116 -116 -115 -3 0 -14 26 -23 58 l-18 58 29
30 c17 16 42 35 56 41 14 7 33 25 41 41 8 16 24 32 35 35 11 2 31 28 47 58 45
89 30 187 -38 244 -19 16 -24 25 -14 25 18 0 46 27 46 45 0 23 -51 75 -104
105 -49 28 -50 30 -21 30 44 0 95 34 95 64 0 31 -49 73 -97 82 -53 10 -146
-10 -223 -49 l-68 -34 5 33 c7 44 -2 43 -78 -6 -34 -22 -66 -40 -71 -40 -4 0
-8 12 -8 28 0 29 -34 92 -50 92 -5 0 -19 -19 -31 -42 l-22 -43 -13 72 c-12 74
-51 156 -79 167 -10 4 -21 -7 -36 -37z m57 -84 c16 -55 15 -146 -2 -218 l-7
-30 43 40 c23 22 53 59 67 83 14 23 27 42 30 42 3 0 3 -29 1 -65 l-4 -64 26 6
c32 8 80 31 103 51 28 25 19 -3 -16 -50 -61 -80 -173 -149 -322 -199 -55 -18
-93 -23 -175 -23 -106 -1 -160 7 -160 23 0 5 11 12 24 15 14 3 46 22 72 42
l47 36 -6 -32 c-6 -29 -5 -31 16 -24 42 13 123 77 170 132 l27 34 0 -37 c0
-19 -7 -52 -15 -72 -22 -52 -6 -62 47 -30 55 33 104 74 98 80 -3 3 -30 -10
-59 -29 -30 -18 -56 -32 -58 -30 -2 2 1 25 7 51 9 42 7 95 -6 116 -2 4 -41
-31 -88 -77 -46 -46 -89 -84 -95 -84 -6 0 -11 14 -11 30 0 40 -18 38 -60 -5
-35 -37 -127 -85 -161 -85 -21 0 -99 55 -99 69 0 5 23 11 51 14 82 10 177 77
263 187 l28 35 -7 -57 c-7 -63 6 -76 38 -40 26 29 127 172 143 203 19 38 30
30 50 -38z m647 -114 c37 -10 48 -31 25 -46 -7 -4 -49 -8 -93 -9 -60 0 -90 -6
-121 -22 -72 -37 -88 -76 -18 -47 47 20 127 7 191 -30 42 -25 81 -70 70 -81
-3 -3 -22 -1 -43 5 -129 33 -284 17 -410 -43 -74 -35 -169 -95 -162 -102 3 -2
49 16 104 41 104 47 235 85 290 85 42 0 157 -43 205 -76 42 -29 59 -61 59
-110 l0 -36 -44 39 c-95 83 -285 111 -433 63 -59 -20 -35 -27 45 -13 98 18
218 5 301 -33 56 -25 101 -68 101 -97 0 -18 -39 -67 -40 -50 0 21 -62 83 -104
105 -56 29 -192 36 -268 14 -31 -9 -96 -44 -151 -81 -95 -63 -206 -125 -227
-125 -23 0 -7 19 33 40 52 27 124 80 156 114 35 37 22 33 -58 -19 -126 -82
-207 -115 -279 -115 -35 0 -61 -4 -58 -9 7 -10 -17 -21 -45 -21 -10 0 -19 7
-19 15 0 12 -14 15 -65 15 -49 0 -67 -4 -71 -15 -5 -12 -24 -15 -84 -15 -43 0
-90 -4 -104 -10 -25 -9 -26 -8 -20 15 5 22 3 25 -21 25 -23 0 -25 2 -15 14 25
31 74 38 142 20 98 -25 247 -15 368 25 90 30 197 80 174 81 -6 0 -48 -13 -93
-30 -220 -79 -403 -78 -560 3 -69 35 -76 43 -61 67 8 12 15 11 54 -8 166 -80
434 -84 584 -8 49 25 166 115 159 122 -2 2 -40 -18 -84 -44 -174 -104 -345
-125 -551 -66 -46 13 -95 32 -110 41 -75 46 -142 134 -142 186 0 41 12 38 48
-14 44 -61 133 -130 210 -160 44 -18 76 -22 142 -22 79 1 111 8 230 46 25 8
77 22 115 31 104 24 243 97 328 173 91 83 147 121 211 146 91 36 149 43 209
26z m-1317 -105 c129 -174 182 -219 294 -248 50 -13 53 -14 28 -21 -15 -4 -63
-6 -106 -4 -62 3 -90 10 -142 36 -109 53 -199 158 -200 231 0 25 41 72 63 72
8 0 36 -30 63 -66z m1226 -385 c69 -35 100 -106 62 -143 -22 -22 -27 -20 -42
13 -21 48 -57 64 -149 69 l-82 4 40 34 41 34 -69 1 c-61 2 -64 3 -28 9 61 12
185 0 227 -21z m-432 -92 c0 -1 -34 -33 -76 -71 l-76 -69 -19 24 c-10 13 -19
27 -19 30 0 4 26 16 58 28 31 12 73 31 92 41 37 20 40 22 40 17z m352 -23 c54
-21 93 -57 85 -78 -11 -29 -36 -18 -43 19 l-6 35 -95 0 c-84 0 -94 -2 -83 -15
7 -9 11 -17 9 -19 -11 -11 -189 -84 -219 -91 -40 -8 -38 -6 39 54 61 48 117
78 176 97 55 17 87 17 137 -2z m-683 -106 l20 -33 -77 -7 c-42 -3 -87 -4 -99
-1 -19 4 -20 8 -11 33 9 26 15 29 61 33 29 2 59 4 69 5 9 1 25 -13 37 -30z
m-299 3 c0 -30 -14 -33 -82 -16 -94 25 -94 35 0 35 75 0 82 -2 82 -19z m873
-11 c-6 -22 -8 -23 -38 -10 -19 8 -19 8 5 18 36 15 39 14 33 -8z m-953 -46
c30 -7 56 -13 57 -13 1 -1 -11 -36 -27 -78 l-28 -78 -102 -3 c-80 -2 -101 0
-98 10 3 7 20 57 38 110 l34 97 35 -16 c20 -9 61 -22 91 -29z"/>
<path d="M648 1235 l30 -25 -59 -171 c-32 -94 -59 -175 -59 -180 0 -5 28 -9
63 -9 l63 0 22 62 c21 57 21 62 6 80 -17 17 -12 18 137 18 l155 0 12 33 c7 18
12 36 12 40 0 4 -59 7 -131 7 -90 0 -128 3 -124 11 4 6 -3 21 -16 35 l-22 24
160 0 161 0 16 47 c9 26 16 48 16 50 0 2 -106 3 -236 3 l-236 0 30 -25z"/>
<path d="M1195 1230 l28 -29 -60 -176 -61 -175 183 0 183 0 16 47 c9 26 16 48
16 50 0 2 -52 3 -115 3 -63 0 -115 2 -115 4 0 2 23 68 50 146 28 78 50 146 50
151 0 5 -46 9 -102 9 l-102 0 29 -30z"/>
<path d="M3607 1238 l21 -23 -224 -262 -224 -263 73 0 73 0 174 209 c95 116
177 208 180 206 4 -3 10 -24 14 -47 4 -24 9 -57 12 -75 l6 -32 -62 -3 -62 -3
56 -48 56 -48 83 3 83 3 -35 203 -35 202 -105 0 -104 0 20 -22z"/>
<path d="M3970 1233 l31 -28 -61 -173 c-33 -95 -60 -175 -60 -178 0 -3 30 -4
67 -2 l66 3 17 50 17 50 134 5 c176 7 192 16 234 140 32 93 31 114 -1 139 -25
20 -39 21 -251 21 l-223 0 30 -27z m325 -95 c-23 -81 -18 -78 -121 -78 l-94 0
11 27 c8 22 6 30 -12 50 l-22 23 122 0 c122 0 122 0 116 -22z"/>
</g>
</svg>
